<svg width="60" height="60" viewBox="0 0 60 60" fill="none" xmlns="http://www.w3.org/2000/svg">
<path d="M28.125 52.6172C29.0625 52.6172 30.0195 52.5879 30.9961 52.5293C31.4844 53.8184 32.0898 55.0195 32.8125 56.1328C32.0313 56.2109 31.25 56.2695 30.4688 56.3086C29.6875 56.3477 28.9062 56.3672 28.125 56.3672C25.5078 56.3672 22.9492 56.1523 20.4492 55.7227C19.7266 55.6055 18.9063 55.4395 17.9883 55.2246C17.0703 55.0098 16.1328 54.7266 15.1758 54.375C14.2187 54.0234 13.2813 53.623 12.3633 53.1738C11.4453 52.7246 10.625 52.1875 9.90234 51.5625C9.17969 50.9375 8.60352 50.2637 8.17383 49.541C7.74414 48.8184 7.51953 47.9687 7.5 46.9922V13.2422C7.5 12.3633 7.68555 11.582 8.05664 10.8984C8.42773 10.2148 8.92578 9.57031 9.55078 8.96484C10.2148 8.30078 11.0059 7.71484 11.9238 7.20703C12.8418 6.69922 13.8477 6.25977 14.9414 5.88867C16.0352 5.51758 17.1582 5.19531 18.3105 4.92188C19.4629 4.64844 20.625 4.44336 21.7969 4.30664C22.9688 4.16992 24.082 4.0625 25.1367 3.98438C26.1914 3.90625 27.1875 3.86719 28.125 3.86719C29.5312 3.86719 31.084 3.94531 32.7832 4.10156C34.4824 4.25781 36.1914 4.52148 37.9102 4.89258C39.6289 5.26367 41.2598 5.79102 42.8027 6.47461C44.3457 7.1582 45.6445 7.98828 46.6992 8.96484C47.3047 9.53125 47.793 10.1758 48.1641 10.8984C48.5352 11.6211 48.7305 12.4023 48.75 13.2422V30H45V18.8086C43.8281 19.5312 42.5488 20.1367 41.1621 20.625C39.7754 21.1133 38.3398 21.5039 36.8555 21.7969C35.3711 22.0898 33.8867 22.2949 32.4023 22.4121C30.918 22.5293 29.4922 22.5977 28.125 22.6172C26.7773 22.6172 25.3613 22.5586 23.877 22.4414C22.3926 22.3242 20.8984 22.1094 19.3945 21.7969C17.8906 21.4844 16.4551 21.0938 15.0879 20.625C13.7207 20.1562 12.4414 19.5508 11.25 18.8086V46.9922C11.25 47.3828 11.3867 47.7441 11.6602 48.0762C11.9336 48.4082 12.2168 48.6816 12.5098 48.8965C13.4277 49.6191 14.541 50.2148 15.8496 50.6836C17.1582 51.1523 18.5449 51.5332 20.0098 51.8262C21.4746 52.1191 22.9102 52.3242 24.3164 52.4414C25.7227 52.5586 26.9922 52.6172 28.125 52.6172ZM28.125 7.61719C27.1289 7.61719 26.0938 7.64648 25.0195 7.70508C23.9453 7.76367 22.8516 7.88086 21.7383 8.05664C20.625 8.23242 19.5508 8.44727 18.5156 8.70117C17.4805 8.95508 16.4941 9.27734 15.5566 9.66797C15.2637 9.78516 14.873 9.96094 14.3848 10.1953C13.8965 10.4297 13.418 10.7129 12.9492 11.0449C12.4805 11.377 12.0801 11.7188 11.748 12.0703C11.416 12.4219 11.25 12.8125 11.25 13.2422C11.25 13.3984 11.2793 13.5449 11.3379 13.6816C11.3965 13.8184 11.4746 13.9551 11.5723 14.0918C12.002 14.7168 12.6172 15.2734 13.418 15.7617C14.2188 16.25 15.1172 16.6699 16.1133 17.0215C17.1094 17.373 18.1641 17.666 19.2773 17.9004C20.3906 18.1348 21.4941 18.3203 22.5879 18.457C23.6816 18.5937 24.6973 18.7012 25.6348 18.7793C26.5723 18.8574 27.4023 18.8867 28.125 18.8672C28.8086 18.8672 29.6289 18.8379 30.5859 18.7793C31.543 18.7207 32.5684 18.623 33.6621 18.4863C34.7559 18.3496 35.8496 18.1543 36.9434 17.9004C38.0371 17.6465 39.1016 17.3535 40.1367 17.0215C41.1719 16.6895 42.0605 16.2793 42.8027 15.791C43.5449 15.3027 44.1699 14.7363 44.6777 14.0918C44.7754 13.9551 44.8535 13.8184 44.9121 13.6816C44.9707 13.5449 45 13.3984 45 13.2422C45 12.832 44.834 12.4414 44.502 12.0703C44.1699 11.6992 43.7695 11.3574 43.3008 11.0449C42.832 10.7324 42.3535 10.459 41.8652 10.2246C41.377 9.99023 40.9863 9.80469 40.6934 9.66797C39.7754 9.29687 38.7891 8.98438 37.7344 8.73047C36.6797 8.47656 35.6055 8.26172 34.5117 8.08594C33.418 7.91016 32.334 7.79297 31.2598 7.73438C30.1855 7.67578 29.1406 7.63672 28.125 7.61719ZM56.0742 45.0879C56.1914 45.6738 56.25 46.2695 56.25 46.875C56.25 47.4805 56.1914 48.0762 56.0742 48.6621L59.707 50.1562L58.2715 53.6426L54.6387 52.1191C53.9551 53.1152 53.1152 53.9551 52.1191 54.6387L53.6426 58.2715L50.1562 59.707L48.6621 56.0742C48.0762 56.1914 47.4805 56.25 46.875 56.25C46.2695 56.25 45.6738 56.1914 45.0879 56.0742L43.5938 59.707L40.1074 58.2715L41.6309 54.6387C40.6348 53.9551 39.7949 53.1152 39.1113 52.1191L35.4785 53.6426L34.043 50.1562L37.6758 48.6621C37.5586 48.0762 37.5 47.4805 37.5 46.875C37.5 46.2695 37.5586 45.6738 37.6758 45.0879L34.043 43.5938L35.4785 40.1074L39.1113 41.6309C39.7949 40.6348 40.6348 39.7949 41.6309 39.1113L40.1074 35.4785L43.5938 34.043L45.0879 37.6758C45.6738 37.5586 46.2695 37.5 46.875 37.5C47.4805 37.5 48.0762 37.5586 48.6621 37.6758L50.1562 34.043L53.6426 35.4785L52.1191 39.1113C53.1152 39.7949 53.9551 40.6348 54.6387 41.6309L58.2715 40.1074L59.707 43.5938L56.0742 45.0879ZM46.875 52.5C47.6562 52.5 48.3887 52.3535 49.0723 52.0605C49.7559 51.7676 50.3516 51.3672 50.8594 50.8594C51.3672 50.3516 51.7676 49.7559 52.0605 49.0723C52.3535 48.3887 52.5 47.6562 52.5 46.875C52.5 46.0938 52.3535 45.3613 52.0605 44.6777C51.7676 43.9941 51.3672 43.3984 50.8594 42.8906C50.3516 42.3828 49.7559 41.9824 49.0723 41.6895C48.3887 41.3965 47.6562 41.25 46.875 41.25C46.0938 41.25 45.3613 41.3965 44.6777 41.6895C43.9941 41.9824 43.3984 42.3828 42.8906 42.8906C42.3828 43.3984 41.9824 43.9941 41.6895 44.6777C41.3965 45.3613 41.25 46.0938 41.25 46.875C41.25 47.6562 41.3965 48.3887 41.6895 49.0723C41.9824 49.7559 42.3828 50.3516 42.8906 50.8594C43.3984 51.3672 43.9941 51.7676 44.6777 52.0605C45.3613 52.3535 46.0938 52.5 46.875 52.5Z" fill="#2B2B2B"/>
</svg>
