<svg width="48" height="52" viewBox="0 0 48 52" fill="none" xmlns="http://www.w3.org/2000/svg">
<path d="M40.1777 39.6445C41.1855 38.3672 41.7891 36.7559 41.7891 34.998C41.7891 30.8555 38.4316 27.498 34.2891 27.498C30.1465 27.498 26.7891 30.8555 26.7891 34.998C26.7891 36.75 27.3926 38.3672 28.4004 39.6445C24.2637 41.7832 21.4336 46.1016 21.4336 51.0703H25.7168C25.7168 46.3418 29.5605 42.498 34.2891 42.498C39.0176 42.498 42.8613 46.3418 42.8613 51.0703H47.1445C47.1445 46.1074 44.3086 41.7891 40.1777 39.6445ZM34.2891 31.7871C36.0586 31.7871 37.5059 33.2285 37.5059 35.0039C37.5059 36.7734 36.0645 38.2207 34.2891 38.2207C32.5195 38.2207 31.0723 36.7793 31.0723 35.0039C31.0723 33.2285 32.5137 31.7871 34.2891 31.7871Z" fill="#0F1F3C"/>
<path d="M0 0V51.4336H19.2891V47.1445H4.28906V4.28906H42.8613V25.7168H47.1445V0H0Z" fill="#0F1F3C"/>
<path d="M8.57227 10.7168H38.5723V15H8.57227V10.7168ZM8.57227 19.2891H30V23.5723H8.57227V19.2891ZM8.57227 27.8613H21.4277V32.1445H8.57227V27.8613Z" fill="#0F1F3C"/>
</svg>
