<svg width="60" height="60" viewBox="0 0 60 60" fill="none" xmlns="http://www.w3.org/2000/svg">
<path d="M21.875 27.5C22.3723 27.5 22.8492 27.6975 23.2008 28.0492C23.5525 28.4008 23.75 28.8777 23.75 29.375V45.625C23.75 46.1223 23.5525 46.5992 23.2008 46.9508C22.8492 47.3025 22.3723 47.5 21.875 47.5C21.3777 47.5 20.9008 47.3025 20.5492 46.9508C20.1975 46.5992 20 46.1223 20 45.625V29.375C20 28.8777 20.1975 28.4008 20.5492 28.0492C20.9008 27.6975 21.3777 27.5 21.875 27.5ZM31.875 39.375C31.875 38.8777 31.6775 38.4008 31.3258 38.0492C30.9742 37.6975 30.4973 37.5 30 37.5C29.5027 37.5 29.0258 37.6975 28.6742 38.0492C28.3225 38.4008 28.125 38.8777 28.125 39.375V45.625C28.125 46.1223 28.3225 46.5992 28.6742 46.9508C29.0258 47.3025 29.5027 47.5 30 47.5C30.4973 47.5 30.9742 47.3025 31.3258 46.9508C31.6775 46.5992 31.875 46.1223 31.875 45.625V39.375ZM38.125 32.5C38.6223 32.5 39.0992 32.6975 39.4508 33.0492C39.8025 33.4008 40 33.8777 40 34.375V45.625C40 46.1223 39.8025 46.5992 39.4508 46.9508C39.0992 47.3025 38.6223 47.5 38.125 47.5C37.6277 47.5 37.1508 47.3025 36.7992 46.9508C36.4475 46.5992 36.25 46.1223 36.25 45.625V34.375C36.25 33.8777 36.4475 33.4008 36.7992 33.0492C37.1508 32.6975 37.6277 32.5 38.125 32.5ZM31.2075 5C32.035 5 32.8325 5.33 33.4175 5.915L40.55 13.05L40.6125 13.1125L48.535 21.035C49.4727 21.9725 49.9997 23.244 50 24.57V50C50 51.3261 49.4732 52.5979 48.5355 53.5355C47.5979 54.4732 46.3261 55 45 55H15C13.6739 55 12.4021 54.4732 11.4645 53.5355C10.5268 52.5979 10 51.3261 10 50V10C10 8.67392 10.5268 7.40215 11.4645 6.46447C12.4021 5.52678 13.6739 5 15 5H31.2075ZM15 8.75C14.6685 8.75 14.3505 8.8817 14.1161 9.11612C13.8817 9.35054 13.75 9.66848 13.75 10V50C13.75 50.3315 13.8817 50.6495 14.1161 50.8839C14.3505 51.1183 14.6685 51.25 15 51.25H45C45.3315 51.25 45.6495 51.1183 45.8839 50.8839C46.1183 50.6495 46.25 50.3315 46.25 50V25H35C33.6739 25 32.4021 24.4732 31.4645 23.5355C30.5268 22.5979 30 21.3261 30 20V8.75H15ZM33.75 11.5525V20C33.75 20.3315 33.8817 20.6495 34.1161 20.8839C34.3505 21.1183 34.6685 21.25 35 21.25H43.445L33.75 11.5525Z" fill="black"/>
</svg>
