<svg width="72" height="91" viewBox="0 0 72 91" fill="none" xmlns="http://www.w3.org/2000/svg">
<path d="M22.0922 62.5739C27.2257 58.4509 31.2476 55.0758 34.1579 52.4484C37.0682 49.7806 39.5137 47.0118 41.4943 44.1419C43.5154 41.2316 44.5259 38.3819 44.5259 35.5928C44.5259 32.9655 43.8792 30.904 42.5857 29.4084C41.3326 27.8724 39.2914 27.1044 36.4619 27.1044C33.7133 27.1044 31.5709 27.9735 30.0349 29.7116C28.5394 31.4093 27.7309 33.6931 27.6097 36.5629H22.2741C22.4358 32.0358 23.8101 28.5394 26.3971 26.0737C28.984 23.608 32.3187 22.3752 36.4013 22.3752C40.5646 22.3752 43.8589 23.5272 46.2842 25.8312C48.7499 28.1352 49.9827 31.3082 49.9827 35.3503C49.9827 38.7053 48.9722 41.9794 46.9512 45.1726C44.9705 48.3255 42.7069 51.1145 40.1604 53.5398C37.6139 55.9246 34.36 58.7137 30.3987 61.9069H51.256V66.5149H22.0922V62.5739Z" fill="#0D0D0D"/>
<circle cx="36" cy="46" r="35.6211" stroke="black" stroke-width="0.757895"/>
</svg>
